<svg width="24" height="24" viewBox="0 0 24 24" fill="none" xmlns="http://www.w3.org/2000/svg">
<path fill-rule="evenodd" clip-rule="evenodd" d="M12.9938 2C13.5461 2 13.9938 2.44772 13.9938 3C13.9938 3.51284 13.6078 3.93551 13.1104 3.99327L12.9938 4H6.84583C5.77757 4 5.39726 4.07344 5.00633 4.28251C4.69171 4.45077 4.45077 4.69171 4.28251 5.00633C4.10331 5.34141 4.02375 5.66869 4.00468 6.42808L4 6.84583V17.1542C4 18.2224 4.07344 18.6027 4.28251 18.9937C4.45077 19.3083 4.69171 19.5492 5.00633 19.7175C5.34141 19.8967 5.66869 19.9762 6.42808 19.9953L6.84583 20H17.1542L17.5719 19.9953C18.3313 19.9762 18.6586 19.8967 18.9937 19.7175C19.3083 19.5492 19.5492 19.3083 19.7175 18.9937C19.8967 18.6586 19.9762 18.3313 19.9953 17.5719L20 17.1542V11.0223C20 10.47 20.4477 10.0223 21 10.0223C21.5128 10.0223 21.9355 10.4083 21.9933 10.9057L22 11.0223V17.1542C22 18.5244 21.8663 19.2166 21.4811 19.9369C21.1265 20.6 20.6 21.1265 19.9369 21.4811C19.2646 21.8406 18.6168 21.9811 17.4194 21.9982L17.1542 22H6.84583C5.47564 22 4.78342 21.8663 4.06313 21.4811C3.39998 21.1265 2.87355 20.6 2.51889 19.9369C2.15936 19.2646 2.01894 18.6168 2.00182 17.4194L2 6.84583C2 5.47564 2.13367 4.78342 2.51889 4.06313C2.87355 3.39998 3.39998 2.87355 4.06313 2.51889C4.7354 2.15936 5.38322 2.01894 6.58062 2.00182L12.9938 2ZM16.9485 9.20953C17.3515 9.52179 17.4504 10.081 17.1971 10.5086L17.1265 10.6125L14.1975 14.3925C13.8838 14.7973 13.3214 14.895 12.8935 14.6382L12.7895 14.5666L10.169 12.509L7.79248 15.5989C7.48155 16.0029 6.92265 16.1036 6.49426 15.8518L6.3901 15.7815C5.98609 15.4706 5.88537 14.9117 6.13719 14.4833L6.20752 14.3791L9.20052 10.4901C9.51356 10.0834 10.0774 9.98443 10.5063 10.2417L10.6105 10.3134L13.232 12.372L15.5455 9.3875C15.8838 8.95093 16.512 8.87126 16.9485 9.20953ZM19 2C20.6574 2 22 3.34262 22 5C22 6.65662 20.6571 8 19 8C17.3429 8 16 6.65662 16 5C16 3.34262 17.3426 2 19 2ZM19 4C18.4472 4 18 4.44719 18 5C18 5.55221 18.4476 6 19 6C19.5524 6 20 5.55221 20 5C20 4.44719 19.5528 4 19 4Z" fill="#808080"/>
</svg>
