<svg width="24" height="24" viewBox="0 0 24 24" fill="none"
    xmlns="http://www.w3.org/2000/svg">
    <path fill-rule="evenodd" clip-rule="evenodd" d="M6.42466 6.83901C7.54148 3.44791 10.7348 1 14.4998 1C19.1942 1 22.9998 4.80558 22.9998 9.5C22.9998 13.2682 20.5479 16.4636 17.1524 17.5779C17.5465 16.7911 17.8146 15.9304 17.9305 15.022C19.7733 13.8747 20.9998 11.8306 20.9998 9.5C20.9998 5.91015 18.0897 3 14.4998 3C12.1717 3 10.1294 4.22401 8.98143 6.06361C8.07287 6.1785 7.21181 6.44577 6.42466 6.83901Z" fill="#808080"/>
    <path fill-rule="evenodd" clip-rule="evenodd" d="M9.5 23C14.1944 23 18 19.1944 18 14.5C18 9.80558 14.1944 6 9.5 6C4.80558 6 1 9.80558 1 14.5C1 19.1944 4.80558 23 9.5 23ZM9.5 21C13.0899 21 16 18.0899 16 14.5C16 10.9101 13.0899 8 9.5 8C5.91015 8 3 10.9101 3 14.5C3 18.0899 5.91015 21 9.5 21Z" fill="#808080"/>
    <path fill-rule="evenodd" clip-rule="evenodd" d="M8.75 10.4529C8.30028 10.5006 7.83959 10.6041 7.43601 10.8134C7.10479 10.9851 6.79748 11.2355 6.57675 11.5929C6.35547 11.9511 6.25 12.3703 6.25 12.8333C6.25 13.2964 6.35547 13.7156 6.57675 14.0738C6.79748 14.4312 7.10479 14.6816 7.43601 14.8533C7.83959 15.0626 8.30028 15.1661 8.75 15.2137V16.9553C8.25507 16.7932 7.81008 16.5012 7.55747 16.2205L6.44253 17.2239C6.93826 17.7748 7.79584 18.3096 8.75 18.5052V19.5H10.25V18.5471C10.6997 18.4994 11.1604 18.3959 11.564 18.1866C11.8952 18.0149 12.2025 17.7645 12.4233 17.4071C12.6445 17.0489 12.75 16.6297 12.75 16.1667C12.75 15.7064 12.6473 15.2885 12.4292 14.9303C12.2112 14.5722 11.9062 14.3205 11.5751 14.1476C11.1699 13.9361 10.7056 13.8325 10.25 13.7853V12.0447C10.7449 12.2068 11.1899 12.4988 11.4425 12.7795L12.5575 11.7761C12.0617 11.2252 11.2042 10.6904 10.25 10.4948V9.5H8.75V10.4529ZM10.25 15.2965V17.0353C10.5018 16.9981 10.712 16.9387 10.8735 16.855C11.011 16.7837 11.0944 16.7042 11.1471 16.6189C11.1992 16.5344 11.25 16.3981 11.25 16.1667C11.25 15.9325 11.1995 15.7949 11.148 15.7104C11.0965 15.6257 11.0155 15.5476 10.881 15.4774C10.7198 15.3933 10.5077 15.3336 10.25 15.2965ZM8.75 13.702V11.9647C8.4982 12.0019 8.28796 12.0613 8.12649 12.145C7.98896 12.2163 7.90565 12.2958 7.85294 12.3811C7.80078 12.4656 7.75 12.6019 7.75 12.8333C7.75 13.0648 7.80078 13.2011 7.85294 13.2856C7.90565 13.3709 7.98896 13.4504 8.12649 13.5217C8.28796 13.6054 8.4982 13.6648 8.75 13.702Z" fill="#808080"/>
</svg>
