<svg width="24" height="24" viewBox="0 0 24 24" fill="none" xmlns="http://www.w3.org/2000/svg">
<path d="M15.5355 8.46447C15.145 8.07395 14.5118 8.07395 14.1213 8.46447L8.46447 14.1213C8.07394 14.5118 8.07394 15.145 8.46447 15.5355C8.85499 15.9261 9.48815 15.9261 9.87868 15.5355L15.5355 9.87868C15.9261 9.48816 15.9261 8.85499 15.5355 8.46447Z" fill="#808080"/>
<path d="M10 9C10 9.55229 9.55229 10 9 10C8.44772 10 8 9.55229 8 9C8 8.44772 8.44772 8 9 8C9.55229 8 10 8.44772 10 9Z" fill="#808080"/>
<path d="M15 16C15.5523 16 16 15.5523 16 15C16 14.4477 15.5523 14 15 14C14.4477 14 14 14.4477 14 15C14 15.5523 14.4477 16 15 16Z" fill="#808080"/>
<path fill-rule="evenodd" clip-rule="evenodd" d="M17.2413 3H6.7587C5.95375 2.99999 5.28936 2.99998 4.74818 3.0442C4.18608 3.09012 3.66938 3.18868 3.18404 3.43598C2.43139 3.81947 1.81947 4.43139 1.43598 5.18404C1.18868 5.66938 1.09012 6.18608 1.0442 6.74818C0.999979 7.28936 0.999988 7.95371 1 8.75867V10C1 10.5523 1.44772 11 2 11H2.5C3.05229 11 3.5 11.4477 3.5 12C3.5 12.5523 3.05229 13 2.5 13H2C1.44772 13 1 13.4477 1 14V15.2413C0.999988 16.0463 0.999979 16.7106 1.0442 17.2518C1.09012 17.8139 1.18868 18.3306 1.43598 18.816C1.81947 19.5686 2.43139 20.1805 3.18404 20.564C3.66938 20.8113 4.18608 20.9099 4.74818 20.9558C5.28937 21 5.95372 21 6.75868 21H17.2413C18.0463 21 18.7106 21 19.2518 20.9558C19.8139 20.9099 20.3306 20.8113 20.816 20.564C21.5686 20.1805 22.1805 19.5686 22.564 18.816C22.8113 18.3306 22.9099 17.8139 22.9558 17.2518C23 16.7106 23 16.0463 23 15.2413V14C23 13.4477 22.5523 13 22 13H21.5C20.9477 13 20.5 12.5523 20.5 12C20.5 11.4477 20.9477 11 21.5 11H22C22.5523 11 23 10.5523 23 10V8.75868C23 7.95372 23 7.28937 22.9558 6.74818C22.9099 6.18608 22.8113 5.66938 22.564 5.18404C22.1805 4.43139 21.5686 3.81947 20.816 3.43598C20.3306 3.18868 19.8139 3.09012 19.2518 3.0442C18.7106 2.99998 18.0463 2.99999 17.2413 3ZM4.09202 5.21799C4.24842 5.1383 4.47262 5.07337 4.91104 5.03755C5.36113 5.00078 5.94342 5 6.8 5H17.2C18.0566 5 18.6389 5.00078 19.089 5.03755C19.5274 5.07337 19.7516 5.1383 19.908 5.21799C20.2843 5.40974 20.5903 5.7157 20.782 6.09202C20.8617 6.24842 20.9266 6.47262 20.9624 6.91104C20.9992 7.36113 21 7.94342 21 8.8V9.04148C19.5811 9.27952 18.5 10.5135 18.5 12C18.5 13.4865 19.5811 14.7205 21 14.9585V15.2C21 16.0566 20.9992 16.6389 20.9624 17.089C20.9266 17.5274 20.8617 17.7516 20.782 17.908C20.5903 18.2843 20.2843 18.5903 19.908 18.782C19.7516 18.8617 19.5274 18.9266 19.089 18.9624C18.6389 18.9992 18.0566 19 17.2 19H6.8C5.94342 19 5.36113 18.9992 4.91104 18.9624C4.47262 18.9266 4.24842 18.8617 4.09202 18.782C3.7157 18.5903 3.40973 18.2843 3.21799 17.908C3.1383 17.7516 3.07337 17.5274 3.03755 17.089C3.00078 16.6389 3 16.0566 3 15.2V14.9585C4.41886 14.7205 5.5 13.4865 5.5 12C5.5 10.5135 4.41886 9.27952 3 9.04148V8.8C3 7.94342 3.00078 7.36113 3.03755 6.91104C3.07337 6.47262 3.1383 6.24842 3.21799 6.09202C3.40974 5.7157 3.7157 5.40974 4.09202 5.21799Z" fill="#808080"/>
</svg>
