<svg width="24" height="24" viewBox="0 0 24 24" fill="none" xmlns="http://www.w3.org/2000/svg">
<path fill-rule="evenodd" clip-rule="evenodd" d="M7.00001 7C7.00001 4.23858 9.23858 2 12 2C14.7614 2 17 4.23858 17 7C17 9.76142 14.7614 12 12 12C9.23858 12 7.00001 9.76142 7.00001 7ZM12 4C10.3432 4 9.00001 5.34315 9.00001 7C9.00001 8.65685 10.3432 10 12 10C13.6569 10 15 8.65685 15 7C15 5.34315 13.6569 4 12 4Z" fill="#808080"/>
<path fill-rule="evenodd" clip-rule="evenodd" d="M17.5 14.1C17.8545 14.1 18.176 14.3081 18.3211 14.6315L19.0808 16.3242L20.9255 16.5237C21.2779 16.5618 21.5751 16.8032 21.6847 17.1403C21.7942 17.4775 21.6956 17.8475 21.4329 18.0855L20.0578 19.3311L20.4381 21.1471C20.5108 21.494 20.373 21.8513 20.0863 22.0597C19.7995 22.268 19.4171 22.2886 19.1096 22.1123L17.5 21.1894L15.8904 22.1123C15.5829 22.2886 15.2005 22.268 14.9138 22.0597C14.627 21.8513 14.4892 21.494 14.5619 21.1471L14.9422 19.3311L13.5671 18.0855C13.3044 17.8475 13.2058 17.4775 13.3154 17.1403C13.4249 16.8032 13.7221 16.5618 14.0746 16.5237L15.9192 16.3242L16.6789 14.6315C16.8241 14.3081 17.1455 14.1 17.5 14.1ZM17.5 17.198L17.3501 17.532C17.2192 17.8236 16.9435 18.0239 16.6257 18.0583L16.2617 18.0976L16.5331 18.3435C16.77 18.558 16.8753 18.8822 16.8098 19.195L16.7347 19.5534L17.0523 19.3712C17.3296 19.2123 17.6704 19.2123 17.9477 19.3712L18.2653 19.5534L18.1903 19.195C18.1248 18.8822 18.2301 18.558 18.4669 18.3435L18.7383 18.0976L18.3743 18.0583C18.0565 18.0239 17.7808 17.8236 17.6499 17.532L17.5 17.198Z" fill="#808080"/>
<path d="M11 14L10.8004 14C9.13143 13.9995 8.05205 13.9992 7.1459 14.2937C5.31928 14.8872 3.88717 16.3193 3.29367 18.1459L3.26458 18.235C3.16142 18.5502 3.07489 18.8145 3.03545 19.2135C2.99993 19.5728 2.99996 20.0643 3 20.9081L3.00001 21C3.00001 21.5523 3.44772 22 4.00001 22C4.55229 22 5.00001 21.5523 5.00001 21C5.00001 20.039 5.00135 19.6571 5.02575 19.4103C5.04325 19.2332 5.0654 19.1651 5.18371 18.8011L5.19578 18.7639C5.59145 17.5462 6.54619 16.5914 7.76394 16.1958C8.3285 16.0123 9.06089 16 11 16C11.5523 16 12 15.5523 12 15C12 14.4477 11.5523 14 11 14Z" fill="#808080"/>
</svg>
