<svg width="24" height="24" viewBox="0 0 24 24" fill="none"
    xmlns="http://www.w3.org/2000/svg">
    <path fill-rule="evenodd" clip-rule="evenodd" d="M7.05028 3.05025C8.36304 1.7375 10.1435 1 12 1C13.8565 1 15.637 1.7375 16.9498 3.05025C18.2625 4.36301 19 6.14349 19 8C19 11.4057 19.4866 13.5369 19.9398 14.7833C20.1664 15.4063 20.3853 15.8102 20.533 16.0441C20.607 16.1612 20.6635 16.2364 20.695 16.2757C20.7088 16.293 20.7178 16.3034 20.7214 16.3074C20.9959 16.5933 21.0761 17.0153 20.9239 17.3827C20.7691 17.7564 20.4045 18 20 18H4.00003C3.59557 18 3.23093 17.7564 3.07615 17.3827C2.92397 17.0153 3.00412 16.5933 3.27869 16.3074C3.28224 16.3034 3.29126 16.293 3.3051 16.2757C3.33651 16.2364 3.39307 16.1612 3.46704 16.0441C3.61476 15.8102 3.83368 15.4063 4.06024 14.7833C4.51345 13.5369 5.00003 11.4057 5.00003 8C5.00003 6.14348 5.73753 4.36301 7.05028 3.05025ZM3.2905 16.2953C3.29065 16.2952 3.2908 16.295 3.29096 16.2949L3.2906 16.2952L3.2905 16.2953ZM18.2698 16C18.2002 15.8359 18.1299 15.6584 18.0602 15.4667C17.5135 13.9631 17 11.5943 17 8C17 6.67392 16.4732 5.40215 15.5356 4.46447C14.5979 3.52678 13.3261 3 12 3C10.6739 3 9.40218 3.52678 8.4645 4.46447C7.52681 5.40215 7.00003 6.67392 7.00003 8C7.00003 11.5943 6.48661 13.9631 5.93982 15.4667C5.87011 15.6584 5.79991 15.8359 5.73022 16H18.2698ZM3.29175 16.2941C3.29175 16.2941 3.29174 16.2941 3.29174 16.2941L3.29135 16.2945C3.29149 16.2943 3.29162 16.2942 3.29175 16.2941ZM9.76826 20.135C10.246 19.8579 10.8579 20.0205 11.135 20.4982C11.2229 20.6498 11.3491 20.7756 11.5009 20.863C11.6527 20.9504 11.8248 20.9965 12 20.9965C12.1752 20.9965 12.3473 20.9504 12.4991 20.863C12.6509 20.7756 12.7771 20.6498 12.865 20.4982C13.1421 20.0205 13.7541 19.8579 14.2318 20.135C14.7095 20.4121 14.8722 21.024 14.595 21.5018C14.3313 21.9564 13.9528 22.3337 13.4974 22.5961C13.0419 22.8584 12.5256 22.9965 12 22.9965C11.4745 22.9965 10.9581 22.8584 10.5027 22.5961C10.0473 22.3337 9.66874 21.9564 9.40503 21.5018C9.12791 21.024 9.29053 20.4121 9.76826 20.135Z" fill="#808080"/>
</svg>
