<svg width="34" height="34" viewBox="0 0 34 34" fill="none" xmlns="http://www.w3.org/2000/svg">
<path fill-rule="evenodd" clip-rule="evenodd" d="M15 10C14.7348 10 14.4804 10.1054 14.2929 10.2929C14.1054 10.4804 14 10.7348 14 11H20C20 10.7348 19.8946 10.4804 19.7071 10.2929C19.5196 10.1054 19.2652 10 19 10H15ZM12 13V20.2C12 21.0566 12.0008 21.6389 12.0376 22.089C12.0734 22.5274 12.1383 22.7516 12.218 22.908C12.4097 23.2843 12.7157 23.5903 13.092 23.782C13.2484 23.8617 13.4726 23.9266 13.911 23.9624C14.3611 23.9992 14.9434 24 15.8 24H18.2C19.0566 24 19.6389 23.9992 20.089 23.9624C20.5274 23.9266 20.7516 23.8617 20.908 23.782C21.2843 23.5903 21.5903 23.2843 21.782 22.908C21.8617 22.7516 21.9266 22.5274 21.9624 22.089C21.9992 21.6389 22 21.0566 22 20.2V13H12ZM24 13H25C25.5523 13 26 12.5523 26 12C26 11.4477 25.5523 11 25 11H22C22 10.2043 21.6839 9.44129 21.1213 8.87868C20.5587 8.31607 19.7956 8 19 8H15C14.2044 8 13.4413 8.31607 12.8787 8.87868C12.3161 9.44129 12 10.2043 12 11H9C8.44772 11 8 11.4477 8 12C8 12.5523 8.44772 13 9 13H10L10 20.2413C9.99999 21.0463 9.99998 21.7106 10.0442 22.2518C10.0901 22.8139 10.1887 23.3306 10.436 23.816C10.8195 24.5686 11.4314 25.1805 12.184 25.564C12.6694 25.8113 13.1861 25.9099 13.7482 25.9558C14.2894 26 14.9537 26 15.7587 26H18.2413C19.0463 26 19.7106 26 20.2518 25.9558C20.8139 25.9099 21.3306 25.8113 21.816 25.564C22.5686 25.1805 23.1805 24.5686 23.564 23.816C23.8113 23.3306 23.9099 22.8139 23.9558 22.2518C24 21.7106 24 21.0463 24 20.2413V13ZM15 15C15.5523 15 16 15.4477 16 16V21C16 21.5523 15.5523 22 15 22C14.4477 22 14 21.5523 14 21V16C14 15.4477 14.4477 15 15 15ZM19 15C19.5523 15 20 15.4477 20 16V21C20 21.5523 19.5523 22 19 22C18.4477 22 18 21.5523 18 21V16C18 15.4477 18.4477 15 19 15Z" fill="#808080"/>
</svg>
